<?xml version="1.0" encoding="utf-8"?>
<!-- Generator: Adobe Illustrator 16.0.0, SVG Export Plug-In . SVG Version: 6.00 Build 0)  -->
<svg version="1.2" baseProfile="tiny" id="Layer_1" xmlns="http://www.w3.org/2000/svg" xmlns:xlink="http://www.w3.org/1999/xlink"
	 x="0px" y="0px" width="434.438px" height="112.508px" viewBox="0 0 434.438 112.508" xml:space="preserve">
<g>
	<path fill="#EC2426" d="M185.462,6.302c5.393-1.319,13.543-2.043,21.575-2.043c7.679,0,15.593,1.08,21.226,4.682
		c5.279,3.113,8.985,8.144,8.985,15.699c0,11.985-7.91,19.423-18.346,22.769v0.365c4.803,2.159,6.96,7.438,7.679,14.741
		c1.079,9.107,1.682,19.667,3.122,23.019H211.96c-0.719-2.147-1.562-9.115-2.278-19.057c-0.84-9.829-4.196-12.826-11.032-12.826
		h-5.272l-6.002,31.883H170.36L185.462,6.302z M196.009,40.71h7.081c9.348,0,16.184-5.645,16.184-13.548
		c0-6.476-5.401-9.363-12.344-9.363c-3.242,0-5.276,0.249-6.717,0.606L196.009,40.71z"/>
	<path fill="#EC2426" d="M267.819,82.182c-6.838,3.479-15.342,4.674-21.82,4.674c-16.785,0-25.41-9.471-25.41-24.819
		c0-17.855,12.946-36.435,34.168-36.435c11.866,0,20.371,6.715,20.371,17.616c0,14.864-14.499,20.263-37.998,19.657
		c0,1.684,0.602,4.314,1.798,5.994c2.276,3.001,6.237,4.561,11.271,4.561c6.355,0,11.745-1.433,16.424-3.715L267.819,82.182z
		 M258.947,43.102c0-2.881-2.393-4.915-6.354-4.915c-8.031,0-12.581,6.707-13.782,12.111c13.421,0.125,20.136-1.676,20.136-7.081
		V43.102z"/>
	<path fill="#EC2426" d="M304.384,85.534c0.112-3.353,0.477-7.427,0.715-11.637h-0.238c-5.521,9.714-13.069,12.958-19.905,12.958
		c-10.546,0-17.736-8.154-17.736-20.378c0-19.783,13.187-40.876,41.954-40.876c7.068,0,14.507,1.312,19.3,2.873L322.6,59.155
		c-1.435,7.554-2.643,19.067-2.398,26.379H304.384z M309.054,39.148c-1.315-0.24-2.756-0.49-4.558-0.49
		c-11.152,0-19.296,13.673-19.296,24.579c0,5.755,2.27,9.706,7.073,9.706c5.152,0,11.745-5.871,14.376-20.255L309.054,39.148z"/>
	<path fill="#EC2426" d="M387.573,0.425l-11.874,62.341c-1.324,7.551-2.395,15.812-2.752,22.768h-15.709l0.842-9.47h-0.245
		c-5.146,7.793-12.342,10.792-19.296,10.792c-9.953,0-18.104-7.911-18.104-22.065c0-20.361,14.746-39.188,36.933-39.188
		c2.385,0,5.508,0.482,7.908,1.427l5.152-26.604H387.573z M362.875,40.817c-1.437-1.196-3.957-2.034-6.838-2.034
		c-10.309,0-17.618,11.871-17.618,23.144c0,7.064,2.997,11.016,8.031,11.016c5.029,0,11.148-5.272,13.302-16.422L362.875,40.817z"/>
	<path fill="#EC2426" d="M434.438,26.913L413.46,68.992c-7.792,15.58-14.752,26.256-22.542,33.56
		c-6.832,6.473-14.983,9.357-18.822,9.956l-3.842-14.746c2.77-0.83,6.597-2.274,9.959-4.673c3.961-2.758,7.313-6.233,9.592-10.192
		c0.474-0.838,0.474-1.561,0.235-2.758l-11.507-53.226h18.107l3.587,25.534c0.844,6.124,1.444,10.319,1.921,14.03h0.237
		c1.319-3.603,2.642-7.431,5.158-13.789l10.677-25.775H434.438"/>
	<g>
		<path d="M3.116,85.104L0,4.313h17.501v35.961c0,9.829-0.24,18.937-0.479,26.252h0.239c2.877-7.914,5.753-16.184,9.469-26.012
			L41.234,4.313h18.939l-0.24,36.082c-0.12,9.708-0.359,17.739-0.839,25.653h0.241c2.757-8.393,5.754-17.024,8.989-25.773
			L82.23,4.313h18.219L64.849,85.104h-18.82L45.55,52.021c-0.12-9.589,0.12-17.739,0.6-26.849h-0.24
			c-2.877,8.631-5.754,17.38-9.709,27.21L22.295,85.104H3.116z"/>
		<path d="M125.403,81.748c-6.832,3.476-15.343,4.677-21.816,4.677c-16.781,0-25.413-9.47-25.413-24.815
			c0-17.859,12.946-36.438,34.164-36.438c11.866,0,20.376,6.711,20.376,17.62c0,14.864-14.503,20.259-37.997,19.657
			c0,1.68,0.599,4.318,1.797,5.994C98.792,71.439,102.748,73,107.782,73c6.353,0,11.748-1.44,16.421-3.715L125.403,81.748z
			 M116.533,42.671c0-2.877-2.397-4.914-6.353-4.914c-8.03,0-12.586,6.713-13.785,12.106c13.426,0.12,20.138-1.678,20.138-7.073
			V42.671z"/>
		<path d="M156.569,0l-6.953,33.561h0.24c4.315-5.153,10.908-8.39,18.1-8.39c12.227,0,17.74,10.07,17.74,20.497
			c0,18.938-12.466,40.756-38.836,40.756c-13.905,0-20.857-5.994-20.857-16.422c0-3.596,0.599-7.195,1.318-10.671L139.188,0H156.569
			z M144.462,60.413c-0.36,1.916-0.72,4.075-0.6,6.473c0.119,4.194,2.517,6.473,6.593,6.473c10.068,0,17.141-13.908,17.141-24.094
			c0-5.754-2.396-10.069-7.672-10.069c-6.232,0-12.346,6.232-14.384,16.423L144.462,60.413z"/>
	</g>
	<path fill="#EC2426" d="M89.07,112.591h281.993l4.797-1.048l-2.284-14.364l-8.174,0.632h-0.678c0,0-0.527,0-1.535,0
		c-22.017,0-274.118,0-274.118,0L89.07,112.591z"/>
	<g>
		<path fill="#231F20" d="M1.408,108.025c1.15,0.69,2.759,1.234,4.569,1.234c1.581,0,3.046-0.746,3.046-2.241
			c0-1.12-0.833-1.809-2.615-2.757c-2.04-1.093-3.994-2.644-3.994-5.144c0-3.908,3.391-6.293,7.615-6.293
			c2.327,0,3.707,0.516,4.54,0.948l-1.293,3.448c-0.632-0.347-1.983-0.862-3.592-0.835c-1.925,0-2.931,0.949-2.931,2.014
			c0,1.148,1.178,1.839,2.815,2.757c2.356,1.237,3.822,2.816,3.822,5.144c0,4.311-3.563,6.523-7.845,6.523
			c-2.672-0.028-4.626-0.719-5.517-1.379L1.408,108.025z"/>
		<path fill="#231F20" d="M17.793,98.456l0.029,5.978c0.028,1.581-0.029,2.901-0.115,4.454h0.057
			c0.488-1.494,1.121-2.903,1.696-4.311l2.787-6.121h3.362l0.345,5.919c0.086,1.667,0.144,3.019,0.057,4.513h0.087
			c0.459-1.553,0.948-2.932,1.523-4.568l2.414-5.863h4.167l-6.839,14.052h-3.879l-0.402-4.885c-0.115-1.465-0.115-2.815-0.115-4.482
			h-0.086c-0.747,1.983-1.062,3.018-1.667,4.28l-2.384,5.087h-3.879l-1.322-14.052H17.793z"/>
		<path fill="#231F20" d="M43.312,111.703c-1.638,0.833-3.678,1.121-5.23,1.121c-4.022,0-6.091-2.27-6.091-5.947
			c0-4.282,3.104-8.737,8.189-8.737c2.845,0,4.885,1.609,4.885,4.225c0,3.564-3.477,4.856-9.109,4.713
			c0,0.402,0.144,1.034,0.431,1.437c0.546,0.719,1.494,1.093,2.701,1.093c1.523,0,2.816-0.347,3.937-0.891L43.312,111.703z
			 M41.186,102.336c0-0.69-0.574-1.179-1.522-1.179c-1.925,0-3.017,1.609-3.305,2.902c3.219,0.029,4.828-0.402,4.828-1.695V102.336z
			"/>
		<path fill="#231F20" d="M60.467,92.106l-2.845,14.942c-0.316,1.81-0.574,3.792-0.661,5.459h-3.764l0.201-2.27h-0.057
			c-1.236,1.867-2.96,2.586-4.627,2.586c-2.384,0-4.338-1.897-4.338-5.287c0-4.885,3.534-9.397,8.85-9.397
			c0.574,0,1.322,0.116,1.896,0.347l1.236-6.38H60.467z M54.547,101.79c-0.344-0.288-0.949-0.488-1.638-0.488
			c-2.472,0-4.224,2.844-4.224,5.545c0,1.695,0.717,2.644,1.925,2.644c1.207,0,2.671-1.265,3.188-3.937L54.547,101.79z"/>
		<path fill="#231F20" d="M69.893,111.703c-1.638,0.833-3.678,1.121-5.23,1.121c-4.022,0-6.091-2.27-6.091-5.947
			c0-4.282,3.104-8.737,8.189-8.737c2.845,0,4.885,1.609,4.885,4.225c0,3.564-3.477,4.856-9.109,4.713
			c0,0.402,0.144,1.034,0.432,1.437c0.546,0.719,1.494,1.093,2.701,1.093c1.523,0,2.816-0.347,3.937-0.891L69.893,111.703z
			 M67.767,102.336c0-0.69-0.574-1.179-1.522-1.179c-1.925,0-3.017,1.609-3.305,2.902c3.219,0.029,4.828-0.402,4.828-1.695V102.336z
			"/>
		<path fill="#231F20" d="M70.583,112.508l1.782-9.483c0.345-1.78,0.575-3.304,0.748-4.568h3.649l-0.259,2.327h0.058
			c1.322-1.809,3.075-2.644,4.914-2.644c2.298,0,3.62,1.409,3.62,3.851c0,0.632-0.115,1.667-0.229,2.357l-1.552,8.16h-4.138
			l1.466-7.786c0.086-0.49,0.144-1.035,0.144-1.553c0-1.005-0.345-1.695-1.409-1.695c-1.351,0-2.902,1.695-3.505,4.799l-1.15,6.235
			H70.583z"/>
	</g>
</g>
</svg>
